<svg xmlns="http://www.w3.org/2000/svg" viewBox="0 0 156.62 310"><g id="Layer_2" data-name="Layer 2"><g id="Layer_1-2" data-name="Layer 1"><g id="Layer_2-2" data-name="Layer 2"><g id="Layer_1-2-2" data-name="Layer 1-2"><path d="M5,165.11H39V305a5,5,0,0,0,5,5h57.6a5,5,0,0,0,5-5V165.76h39.06a5,5,0,0,0,5-4.42l5.93-51.51a5,5,0,0,0-4.4-5.54q-.3,0-.6,0h-45V72c0-9.73,5.24-14.67,15.58-14.67H151.6a5,5,0,0,0,5-5V5a5,5,0,0,0-5-5H109.19c-7,0-31.49,1.38-50.8,19.15C37,38.84,40,62.42,40.67,66.51v37.75H5a5,5,0,0,0-5,5v50.85A5,5,0,0,0,5,165.11Z"/></g></g></g></g></svg>