<svg xmlns="http://www.w3.org/2000/svg" viewBox="0 0 99.39 109.62"><defs><style>.cls-1{fill:#fff;}</style></defs><g id="Layer_2" data-name="Layer 2"><g id="Layer_2-2" data-name="Layer 2"><circle class="cls-1" cx="64.4" cy="90.04" r="19.59"/><circle class="cls-1" cx="76.57" cy="22.82" r="22.82"/><circle class="cls-1" cx="27.64" cy="51.06" r="27.64"/><polygon class="cls-1" points="50.14 34.99 56.84 31.31 60.96 37.64 53.75 42.13 47.08 40.47 50.14 34.99"/><polygon class="cls-1" points="54.94 72.89 49.64 67.8 45.29 69.56 44.13 73.24 48.85 78.13 53.5 77.47 54.94 72.89"/><ellipse cx="26.77" cy="42.2" rx="5.97" ry="7.33"/><path d="M18.7,67.66H35.08a.64.64,0,0,0,.65-.66l-.32-12.59a.52.52,0,0,0,0-.21,14.28,14.28,0,0,0-3-4.89.64.64,0,0,0-.89,0c-1.21,1.24-5.11,4.52-9.13,0a.65.65,0,0,0-.89-.1c-1,.81-3.36,2.86-3.36,4.82V67A.64.64,0,0,0,18.7,67.66Z"/></g></g></svg>