<svg xmlns="http://www.w3.org/2000/svg" viewBox="0 0 134.98 116.75"><defs><style>.cls-1{fill:#fff;}</style></defs><g id="Layer_2" data-name="Layer 2"><g id="Layer_2-2" data-name="Layer 2"><ellipse class="cls-1" cx="67.49" cy="48.86" rx="67.49" ry="48.86"/><path class="cls-1" d="M46.29,95.27v21.48L64.87,97.69S55,94.81,46.29,95.27Z"/><path d="M43.2,35.37a14.62,14.62,0,0,1,2.48-7.8A19,19,0,0,1,52.89,21,22.76,22.76,0,0,1,64,18.42a23.58,23.58,0,0,1,10.38,2.17,16.8,16.8,0,0,1,7,5.9,14.44,14.44,0,0,1,2.45,8.11,12.55,12.55,0,0,1-1.39,6A18.67,18.67,0,0,1,79,45.12Q77.11,47,72.12,51.47a28.52,28.52,0,0,0-2.21,2.21,9.09,9.09,0,0,0-1.24,1.74A8.76,8.76,0,0,0,68,57c-.15.52-.37,1.45-.67,2.77C66.86,62.6,65.25,64,62.55,64A4.93,4.93,0,0,1,59,62.62a5.4,5.4,0,0,1-1.44-4.09,14.34,14.34,0,0,1,3.85-10.28,63.6,63.6,0,0,1,4.7-4.48c1.73-1.52,3-2.66,3.76-3.43a11.63,11.63,0,0,0,1.94-2.58,6.17,6.17,0,0,0,.79-3.08,7.14,7.14,0,0,0-2.41-5.47A8.79,8.79,0,0,0,64,27q-4.47,0-6.57,2.25a17.83,17.83,0,0,0-3.57,6.63c-.92,3-2.67,4.58-5.23,4.58a5.14,5.14,0,0,1-3.84-1.6A4.9,4.9,0,0,1,43.2,35.37ZM63,79.82a6.38,6.38,0,0,1-4.32-1.61,5.6,5.6,0,0,1-1.84-4.48,5.75,5.75,0,0,1,1.78-4.29A6,6,0,0,1,63,67.69a6,6,0,0,1,6,6,5.63,5.63,0,0,1-1.82,4.46A6.13,6.13,0,0,1,63,79.82Z"/></g></g></svg>