<svg xmlns="http://www.w3.org/2000/svg" viewBox="0 0 115.06 113.1"><defs><style>.cls-1{fill:#fff;}</style></defs><g id="Layer_2" data-name="Layer 2"><g id="Layer_2-2" data-name="Layer 2"><path d="M66,102s-.64,13.35-19.71,5.4c0,0-29.56-9.22-25.11-18.75s11.76-32.42-8.58-46.72S-2,30.8,19.88,29.53s-.32-11.44,2.54-11.12-.63-4.15,5.72,0S49.44,17.77,49.76,7,57.07-.66,66,7s28,18.44,44.49,15.58c0,0,8-1-6.67,20.34,0,0,8.58,54.67-10.17,52.12S66,102,66,102Z"/><rect x="82.07" y="90.85" width="36.15" height="14.66" rx="7.33" transform="translate(98.76 -42.05) rotate(45)"/><circle class="cls-1" cx="76.78" cy="74.98" r="29.4"/><circle cx="76.78" cy="74.98" r="19.77"/></g></g></svg>