<svg xmlns="http://www.w3.org/2000/svg" viewBox="0 0 512.05 419.18"><g id="Layer_2" data-name="Layer 2"><g id="Layer_1-2" data-name="Layer 1"><g id="Layer_2-2" data-name="Layer 2"><g id="Layer_1-2-2" data-name="Layer 1-2"><path d="M500.39,48.35a195.74,195.74,0,0,1-24.76,9,109.45,109.45,0,0,0,22.28-39.19,8.26,8.26,0,0,0-12.08-9.62,194.87,194.87,0,0,1-57.6,22.76,110,110,0,0,0-186.85,78.56,112.34,112.34,0,0,0,.9,14.2A281.39,281.39,0,0,1,49.15,21.62a8.25,8.25,0,0,0-13.54,1.06A110.07,110.07,0,0,0,46.88,149.19a93.1,93.1,0,0,1-14.71-6.57,8.27,8.27,0,0,0-12.27,7v1.47a110.32,110.32,0,0,0,53.81,94.52c-2.8-.28-5.59-.69-8.37-1.21a8.25,8.25,0,0,0-9.66,6.54,8.34,8.34,0,0,0,.25,4.09,109.89,109.89,0,0,0,80.52,73.67A194.47,194.47,0,0,1,32.5,358.39,199.07,199.07,0,0,1,9.22,357a8.26,8.26,0,0,0-5.43,15.15,296.4,296.4,0,0,0,160.28,47c111.91,0,181.91-52.77,220.93-97,48.66-55.2,76.56-128.26,76.56-200.45,0-3,0-6.06-.14-9.09A214,214,0,0,0,510.6,60.55a8.26,8.26,0,0,0-10.21-12.2Z"/></g></g></g></g></svg>