<svg xmlns="http://www.w3.org/2000/svg" viewBox="0 0 512 419.19"><defs><style>.cls-1{fill:#fff;}</style></defs><g id="Layer_2" data-name="Layer 2"><g id="Layer_1-2" data-name="Layer 1"><path class="cls-1" d="M500.4,48.38a194.3,194.3,0,0,1-24.76,9,109.43,109.43,0,0,0,22.28-39.19,8.26,8.26,0,0,0-12.08-9.62,194.8,194.8,0,0,1-57.6,22.76,110,110,0,0,0-186.85,78.56,111.75,111.75,0,0,0,.9,14.2A281.39,281.39,0,0,1,49.16,21.65a8.26,8.26,0,0,0-13.54,1.06A110.06,110.06,0,0,0,46.89,149.22a93.1,93.1,0,0,1-14.71-6.57,8.27,8.27,0,0,0-12.27,7c0,.49,0,1,0,1.47a110.31,110.31,0,0,0,53.81,94.52q-4.2-.42-8.37-1.21a8.25,8.25,0,0,0-9.41,10.63,109.88,109.88,0,0,0,80.52,73.67A194.45,194.45,0,0,1,32.51,358.42a198.06,198.06,0,0,1-23.28-1.36A8.26,8.26,0,0,0,3.8,372.21a296.37,296.37,0,0,0,160.28,47c111.91,0,181.91-52.77,220.93-97,48.66-55.2,76.56-128.26,76.56-200.45,0-3,0-6.06-.14-9.09a213.76,213.76,0,0,0,49.18-52.09A8.26,8.26,0,0,0,500.4,48.38Z"/></g></g></svg>